<svg width="40" height="41" viewBox="0 0 40 41" fill="none" xmlns="http://www.w3.org/2000/svg">
<path d="M20.3945 40.1618C20.262 40.1618 20.1296 40.1618 19.9962 40.1612C16.8607 40.1688 13.9635 40.0892 11.1461 39.9177C8.56295 39.7605 6.20507 38.8678 4.32695 37.3364C2.51474 35.8587 1.27721 33.8606 0.648829 31.3984C0.101933 29.2547 0.0729398 27.1505 0.0451677 25.1152C0.0250253 23.6548 0.00427262 21.9244 0 20.1647C0.00427262 18.3977 0.0250253 16.6673 0.0451677 15.2069C0.0729398 13.172 0.101933 11.0677 0.648829 8.92375C1.27721 6.46149 2.51474 4.46343 4.32695 2.98571C6.20507 1.45428 8.56295 0.56161 11.1464 0.404438C13.9639 0.233228 16.8616 0.153269 20.0038 0.160899C23.1402 0.154184 26.0365 0.233228 28.8539 0.404438C31.4371 0.56161 33.7949 1.45428 35.6731 2.98571C37.4856 4.46343 38.7228 6.46149 39.3512 8.92375C39.8981 11.0674 39.9271 13.172 39.9548 15.2069C39.975 16.6673 39.996 18.3977 40 20.1574C39.996 21.9244 39.975 23.6548 39.9548 25.1152C39.9432 25.9782 39.2303 26.668 38.3712 26.6564C37.5081 26.6445 36.8184 25.9352 36.83 25.0724C36.8499 23.6207 36.8709 21.9015 36.8749 20.1574C36.8709 18.4206 36.8499 16.7014 36.83 15.2497C36.8047 13.3969 36.7784 11.4809 36.3231 9.69648C35.8638 7.89648 34.9806 6.45356 33.6982 5.40768C32.3111 4.27635 30.6173 3.64248 28.6641 3.52376C25.9129 3.35652 23.0807 3.2793 20.0038 3.28571C16.9196 3.27839 14.0871 3.35652 11.3359 3.52376C9.38268 3.64248 7.6892 4.27635 6.30182 5.40738C5.01942 6.45325 4.13621 7.89618 3.6769 9.69648C3.22156 11.4809 3.19531 13.3969 3.16998 15.2497C3.15014 16.7014 3.12939 18.4206 3.12512 20.1647C3.12939 21.9015 3.15014 23.6207 3.16998 25.0724C3.19531 26.9252 3.22156 28.8412 3.6769 30.6256C4.13621 32.4256 5.01942 33.8685 6.30182 34.9144C7.6892 36.0457 9.38268 36.6796 11.3359 36.7983C14.0871 36.9656 16.9202 37.0437 19.9965 37.0361C23.081 37.0434 25.9129 36.9656 28.6641 36.7983C30.6173 36.6796 32.3108 36.0457 33.6982 34.9144C34.622 34.1609 35.3438 33.1941 35.8433 32.0405C36.1864 31.2488 37.1062 30.8847 37.8982 31.2278C38.6901 31.5708 39.0539 32.4906 38.7112 33.2826C38.0108 34.8998 36.9887 36.2637 35.6731 37.3364C33.7949 38.8681 31.4371 39.7605 28.8539 39.9177C26.1558 40.0819 23.3841 40.1618 20.3945 40.1618ZM29.6877 20.1611C29.6877 14.776 25.3068 10.3951 19.9217 10.3951C14.537 10.3951 10.1557 14.776 10.1557 20.1611C10.1557 25.5461 14.537 29.927 19.9217 29.927C25.3068 29.927 29.6877 25.5461 29.6877 20.1611ZM26.5626 20.1611C26.5626 23.8227 23.5837 26.8019 19.9217 26.8019C16.2601 26.8019 13.2808 23.8227 13.2808 20.1611C13.2808 16.4994 16.2601 13.5202 19.9217 13.5202C23.5837 13.5202 26.5626 16.4994 26.5626 20.1611ZM30.7815 7.26993C29.4872 7.26993 28.4377 8.31917 28.4377 9.61377C28.4377 10.9084 29.4872 11.9576 30.7815 11.9576C32.0761 11.9576 33.1253 10.9084 33.1253 9.61377C33.1253 8.31917 32.0761 7.26993 30.7815 7.26993Z" fill="#FAFAFA"/>
</svg>
